<?xml version="1.0" standalone="no"?>
<!DOCTYPE svg PUBLIC "-//W3C//DTD SVG 20010904//EN"
 "http://www.w3.org/TR/2001/REC-SVG-20010904/DTD/svg10.dtd">
<svg version="1.0" xmlns="http://www.w3.org/2000/svg"
 width="600.000000pt" height="600.000000pt" viewBox="0 0 600.000000 600.000000"
 preserveAspectRatio="xMidYMid meet">
<metadata>
Created by potrace 1.16, written by Peter Selinger 2001-2019
</metadata>
<g transform="translate(0.000000,600.000000) scale(0.100000,-0.100000)"
fill="#000000" stroke="none">
<path d="M789 4737 c-2 -179 -7 -328 -10 -332 -6 -5 -318 -34 -379 -35 l-26 0
-78 -665 c-44 -366 -77 -667 -75 -670 3 -2 135 -18 294 -35 159 -17 290 -32
291 -33 1 -1 9 -112 17 -246 9 -133 17 -244 19 -246 2 -3 547 -25 1239 -52
l167 -6 5 29 c4 16 12 136 18 266 l13 237 40 6 c23 2 178 14 345 25 168 11
306 22 307 23 6 5 -28 362 -35 368 -3 4 -163 43 -356 88 -192 45 -355 84 -362
86 -7 2 -121 -176 -269 -418 -274 -452 -262 -432 -268 -426 -2 2 -29 222 -61
489 -31 267 -61 488 -66 491 -6 3 -218 59 -472 123 -530 135 -493 124 -481
135 5 4 204 93 442 197 408 178 432 190 431 214 -1 73 -46 690 -50 693 -2 3
-146 8 -320 12 l-317 7 -3 -325z"/>
<path d="M1716 4998 c35 -37 353 -386 376 -413 12 -13 168 65 168 85 0 27 -30
354 -33 355 -1 1 -126 5 -277 9 l-275 7 41 -43z"/>
<path d="M3210 3745 l0 -1265 1265 0 1265 0 0 1265 0 1265 -1265 0 -1265 0 0
-1265z m505 333 l23 -73 82 -5 82 -5 -65 -47 -66 -47 24 -72 c14 -40 23 -74
21 -77 -3 -2 -32 15 -65 37 -33 23 -63 41 -66 41 -4 0 -35 -21 -71 -46 -35
-25 -64 -44 -64 -42 0 3 11 38 25 78 14 40 25 75 25 76 0 1 -30 24 -67 51
l-68 48 84 5 85 5 25 77 c14 43 27 76 29 74 2 -3 14 -37 27 -78z m634 -76 l83
-3 -66 -50 c-36 -27 -66 -51 -66 -53 0 -1 11 -35 24 -74 14 -40 22 -72 18 -72
-3 0 -32 18 -63 40 -32 22 -61 40 -66 40 -5 0 -36 -20 -69 -44 -32 -25 -60
-43 -62 -42 -1 2 8 38 22 79 l24 76 -64 43 c-35 24 -64 46 -64 51 0 4 36 7 79
7 l79 0 28 83 27 82 27 -80 27 -80 82 -3z m530 0 l83 -3 -66 -50 c-36 -27 -66
-51 -66 -53 0 -1 11 -35 24 -74 14 -40 22 -72 18 -72 -3 0 -32 18 -63 40 -32
22 -60 40 -64 40 -4 0 -36 -21 -72 -46 l-64 -46 7 29 c4 15 15 51 25 80 l18
52 -64 43 c-36 24 -65 46 -65 51 0 4 36 7 79 7 l79 0 28 83 27 82 27 -80 27
-80 82 -3z m423 76 l25 -73 83 -3 82 -3 -53 -40 c-30 -22 -60 -44 -68 -48 -11
-7 -9 -22 12 -85 14 -42 22 -76 18 -76 -4 0 -33 18 -64 40 -30 22 -60 40 -64
40 -5 0 -36 -20 -69 -44 -32 -25 -60 -42 -62 -38 -1 4 9 40 22 79 l24 72 -63
43 c-36 24 -65 46 -65 51 0 4 36 7 80 7 l80 0 22 75 c13 41 26 75 30 75 3 0
17 -33 30 -72z m-1322 -370 l22 -68 79 0 c43 0 79 -3 78 -7 0 -5 -27 -27 -60
-50 -32 -24 -59 -49 -59 -56 0 -8 9 -40 20 -72 11 -32 20 -62 20 -67 0 -5 -30
11 -66 36 l-65 46 -63 -45 c-35 -25 -66 -45 -69 -45 -3 0 5 32 19 72 13 40 23
76 22 80 -2 4 -31 27 -65 51 -35 24 -60 47 -56 51 3 3 41 6 83 6 l76 0 24 75
c13 42 27 72 31 68 3 -5 16 -38 29 -75z m527 2 l19 -65 85 -5 84 -5 -66 -50
-66 -50 24 -70 c13 -38 22 -73 21 -77 -2 -4 -32 12 -67 37 -35 24 -69 41 -75
38 -6 -4 -34 -24 -62 -45 -28 -21 -53 -38 -56 -38 -3 0 5 34 18 76 14 42 23
78 22 79 -2 1 -31 22 -65 47 -35 25 -60 48 -56 51 3 4 41 7 83 7 l77 0 22 76
c12 43 26 73 31 68 4 -5 17 -38 27 -74z m533 -2 l22 -68 81 -1 82 0 -39 -32
c-22 -18 -51 -42 -65 -53 l-26 -22 23 -69 c12 -38 22 -73 22 -77 0 -4 -30 13
-66 38 l-66 47 -63 -46 c-35 -25 -66 -45 -69 -45 -3 0 6 32 20 72 13 40 23 76
22 80 -2 4 -31 27 -65 51 -35 24 -60 47 -56 51 3 3 41 6 83 6 l76 0 24 75 c13
42 27 72 31 68 3 -5 16 -38 29 -75z"/>
<path d="M2630 4265 c-56 -80 -100 -150 -98 -155 4 -10 431 -500 434 -497 1 1
5 171 9 378 l7 376 -108 17 c-60 10 -116 19 -125 22 -12 3 -44 -35 -119 -141z"/>
<path d="M431 2040 c-121 -26 -198 -138 -171 -251 17 -71 65 -110 168 -137 45
-12 119 -32 164 -44 108 -28 161 -73 161 -135 0 -88 -78 -153 -193 -161 -143
-10 -260 69 -260 178 0 28 -3 30 -35 30 -33 0 -35 -2 -35 -32 0 -146 110 -230
300 -232 116 -1 182 19 233 71 45 45 60 89 55 162 -8 109 -63 149 -281 202
-181 44 -227 82 -212 172 30 174 346 167 395 -9 12 -41 15 -44 47 -44 35 0 35
0 28 37 -15 83 -65 143 -147 178 -47 19 -160 27 -217 15z"/>
<path d="M1440 1650 l0 -380 35 0 35 0 0 380 0 380 -35 0 -35 0 0 -380z"/>
<path d="M2590 1873 l0 -158 -31 38 c-49 60 -98 80 -185 75 -61 -3 -79 -8
-115 -33 -24 -17 -55 -53 -73 -85 -26 -47 -31 -66 -34 -146 -5 -114 14 -179
70 -240 90 -98 257 -95 341 6 14 16 27 30 29 30 2 0 2 -20 0 -45 -4 -44 -4
-45 27 -45 l31 0 0 380 0 380 -30 0 -30 0 0 -157z m-113 -112 c132 -60 152
-314 33 -414 -90 -76 -214 -50 -269 58 -22 42 -26 62 -26 140 0 97 17 146 67
192 49 46 125 55 195 24z"/>
<path d="M2780 1650 l0 -380 30 0 30 0 0 332 c0 189 4 328 9 323 5 -6 66 -155
136 -332 l127 -323 32 0 31 0 130 330 c72 182 133 330 138 330 4 0 7 -148 7
-330 l0 -330 30 0 30 0 0 380 0 380 -49 0 -49 0 -77 -197 c-43 -109 -102 -259
-131 -333 -29 -74 -57 -136 -62 -138 -5 -1 -12 6 -15 17 -2 10 -60 161 -128
335 l-124 316 -47 0 -48 0 0 -380z"/>
<path d="M4588 1868 l-3 -162 -27 41 c-37 56 -86 78 -174 78 -93 0 -152 -34
-197 -114 -59 -105 -47 -295 25 -377 92 -105 261 -104 345 1 15 19 31 35 35
35 4 0 5 -22 3 -50 -5 -50 -4 -50 25 -50 l30 0 0 380 0 380 -30 0 -30 0 -2
-162z m-83 -122 c125 -96 107 -360 -29 -426 -123 -59 -239 14 -268 168 -20
107 23 227 96 274 48 30 151 22 201 -16z"/>
<path d="M5668 1868 c-3 -162 -3 -163 -21 -130 -39 72 -149 108 -247 82 -64
-17 -133 -88 -154 -159 -30 -103 -15 -235 37 -312 66 -98 216 -123 318 -53 20
13 42 36 49 49 20 38 30 30 30 -25 0 -47 2 -50 25 -50 l25 0 0 380 0 380 -30
0 -30 0 -2 -162z m-114 -102 c116 -48 156 -262 73 -387 -42 -63 -142 -95 -214
-68 -84 31 -127 121 -122 253 4 71 8 89 34 131 17 26 46 56 65 66 41 22 117
25 164 5z"/>
<path d="M1005 1812 c-22 -11 -48 -28 -57 -38 -20 -23 -48 -86 -48 -109 0 -22
59 -20 66 3 28 90 69 117 172 110 58 -4 68 -8 93 -36 21 -24 29 -43 29 -70 0
-63 -13 -72 -130 -88 -211 -29 -258 -65 -248 -191 4 -49 10 -61 41 -89 44 -40
105 -58 171 -49 62 8 95 25 134 69 37 42 42 44 42 13 0 -43 27 -67 76 -67 40
0 44 2 44 24 0 18 -7 25 -29 29 l-29 6 -4 193 c-3 212 -9 236 -71 282 -41 30
-194 35 -252 8z m233 -414 c-57 -103 -235 -121 -283 -28 -48 93 13 144 203
171 45 6 86 16 90 23 4 6 8 -20 10 -57 2 -56 -1 -75 -20 -109z"/>
<path d="M3752 1815 c-54 -17 -80 -39 -103 -90 -27 -59 -25 -74 11 -73 25 1
30 5 30 25 0 13 15 40 34 61 l34 37 87 0 c85 0 87 -1 116 -33 22 -24 29 -42
29 -72 0 -52 -25 -77 -87 -85 -187 -24 -253 -46 -278 -96 -19 -37 -19 -122 0
-159 51 -98 265 -98 335 0 27 38 40 38 40 2 0 -38 28 -62 73 -62 33 0 37 3 37
24 0 19 -6 25 -27 28 l-28 3 -5 195 c-6 198 -12 231 -48 263 -49 45 -164 59
-250 32z m238 -310 c0 -109 -44 -170 -141 -196 -59 -16 -115 -4 -150 30 -37
38 -46 75 -26 115 20 44 68 65 186 83 53 8 100 19 106 24 20 19 25 7 25 -56z"/>
<path d="M1620 1603 c0 -193 3 -223 20 -260 49 -109 220 -123 317 -27 l43 43
0 -44 c0 -43 1 -45 30 -45 l30 0 0 275 0 275 -29 0 -29 0 -4 -182 c-3 -147 -7
-191 -21 -223 -22 -48 -53 -84 -87 -97 -39 -15 -117 -11 -150 8 -52 31 -60 71
-60 294 l0 200 -30 0 -30 0 0 -217z"/>
<path d="M4935 1806 c-35 -15 -92 -71 -101 -98 -11 -37 -24 -16 -24 42 0 57
-1 60 -25 60 l-25 0 0 -270 0 -270 30 0 30 0 0 165 c0 184 7 215 62 272 30 31
55 43 121 57 20 5 27 12 27 31 0 22 -4 25 -32 25 -18 -1 -46 -7 -63 -14z"/>
<path d="M5080 1540 l0 -270 30 0 31 0 -1 270 -1 270 -30 0 -29 0 0 -270z"/>
</g>
</svg>
