<?xml version="1.0" standalone="no"?>
<!DOCTYPE svg PUBLIC "-//W3C//DTD SVG 20010904//EN"
 "http://www.w3.org/TR/2001/REC-SVG-20010904/DTD/svg10.dtd">
<svg version="1.0" xmlns="http://www.w3.org/2000/svg"
 width="600.000000pt" height="600.000000pt" viewBox="0 0 600.000000 600.000000"
 preserveAspectRatio="xMidYMid meet">
<metadata>
Created by potrace 1.16, written by Peter Selinger 2001-2019
</metadata>
<g transform="translate(0.000000,600.000000) scale(0.100000,-0.100000)"
fill="#000000" stroke="none">
<path d="M2930 5657 c-3 -2 -25 -7 -50 -10 -73 -9 -208 -54 -305 -101 -100
-48 -219 -134 -311 -223 l-61 -60 -34 18 c-41 21 -222 69 -259 69 -30 0 -50
-17 -50 -41 0 -24 12 -30 89 -44 77 -15 170 -41 190 -54 11 -7 2 -26 -41 -92
-140 -216 -185 -430 -152 -719 20 -180 87 -389 175 -548 22 -38 27 -57 21 -70
-5 -9 -13 -60 -16 -112 -16 -214 -56 -380 -131 -535 -117 -242 -325 -436 -535
-499 -200 -60 -407 -32 -588 80 -206 129 -373 370 -445 645 -33 123 -37 150
-46 291 -7 105 -10 120 -32 144 -13 14 -34 30 -46 35 -17 6 -23 19 -28 61 -13
115 -86 1016 -86 1064 -1 86 19 133 81 196 50 50 66 59 141 82 46 14 106 29
133 32 60 9 91 35 76 64 -7 13 -21 20 -39 20 -42 0 -230 -49 -275 -72 -60 -31
-130 -102 -160 -164 -35 -71 -41 -134 -27 -284 5 -63 27 -314 47 -557 l37
-441 -26 -32 c-25 -29 -27 -38 -27 -127 0 -434 220 -886 544 -1117 92 -65 238
-133 344 -158 48 -12 88 -23 90 -24 2 -1 3 -85 3 -186 -1 -193 9 -341 35 -498
118 -710 551 -1301 1108 -1511 187 -70 263 -83 481 -83 159 0 207 4 295 23
312 67 536 188 761 411 281 280 445 627 520 1107 19 123 22 193 28 642 5 437
8 504 21 506 8 1 44 5 80 9 288 30 682 169 910 321 386 258 559 733 439 1209
-65 256 -271 511 -511 632 -234 118 -462 141 -773 79 -130 -26 -467 -215 -608
-341 -43 -39 -40 -45 6 -10 68 51 290 150 457 204 91 30 111 33 233 39 218 11
401 -40 574 -159 132 -92 231 -236 295 -431 81 -250 72 -465 -28 -674 -83
-174 -280 -370 -504 -504 -137 -82 -421 -199 -562 -233 l-28 -6 0 58 c0 36 -6
66 -15 78 -11 14 -14 50 -15 144 l0 125 75 24 c187 58 336 208 406 408 30 86
37 233 14 325 -51 210 -203 373 -404 432 -81 24 -232 21 -317 -5 -190 -58
-331 -190 -409 -384 -37 -91 -47 -263 -21 -365 53 -211 219 -377 422 -423 l59
-14 3 -121 c2 -84 -1 -129 -10 -145 -7 -12 -15 -62 -18 -111 l-5 -88 -93 -33
c-51 -18 -112 -45 -135 -59 -99 -57 -203 -174 -237 -264 -30 -81 -32 -99 -5
-47 44 83 91 139 154 185 68 49 123 73 234 99 64 15 79 16 84 6 2 -8 3 -229 0
-492 -4 -511 -11 -595 -68 -815 -135 -530 -460 -909 -904 -1056 -146 -48 -213
-57 -410 -56 -163 0 -189 3 -280 28 -541 146 -971 705 -1080 1404 -30 197 -38
567 -12 609 4 7 33 17 65 24 361 74 679 378 827 789 32 91 75 264 75 304 0 27
24 5 249 -225 277 -284 365 -383 452 -512 148 -220 214 -425 213 -662 -1 -207
-55 -378 -157 -500 -37 -44 -38 -47 -12 -28 117 84 221 255 271 448 20 78 27
133 31 250 6 177 -9 300 -58 452 -76 238 -159 386 -505 904 -286 429 -346 533
-389 684 -25 88 -48 258 -41 306 3 13 7 47 11 74 8 62 38 176 65 248 44 117
158 264 268 345 185 136 382 192 577 162 79 -12 249 -64 295 -91 151 -88 310
-239 384 -365 50 -86 56 -86 27 -3 -84 246 -308 487 -554 599 -134 61 -229 82
-387 87 -80 3 -147 3 -150 0z m1480 -1316 c119 -45 213 -148 252 -274 17 -56
20 -86 16 -159 -5 -77 -11 -99 -43 -164 -192 -390 -743 -319 -815 105 -37 218
111 444 331 506 71 20 187 13 259 -14z"/>
<path d="M4163 4216 c-133 -42 -223 -181 -210 -325 26 -296 420 -365 557 -97
30 59 34 77 34 140 0 58 -5 82 -27 129 -65 132 -214 196 -354 153z"/>
<path d="M1675 5458 c-53 -232 -51 -237 69 -192 71 26 106 53 106 81 0 8 -28
41 -62 73 -68 64 -104 76 -113 38z"/>
<path d="M692 5406 c-34 -35 -62 -69 -62 -74 0 -5 8 -19 18 -30 20 -24 155
-74 177 -66 19 8 18 56 -3 154 -15 68 -19 75 -42 78 -21 2 -39 -11 -88 -62z"/>
</g>
</svg>
